<?xml version="1.0" encoding="utf-8"?>
<!-- Generator: Adobe Illustrator 17.0.0, SVG Export Plug-In . SVG Version: 6.00 Build 0)  -->
<svg version="1.2" baseProfile="tiny" id="Layer_1" xmlns="http://www.w3.org/2000/svg" xmlns:xlink="http://www.w3.org/1999/xlink"
	 x="0px" y="0px" width="173px" height="57.333px" viewBox="0 0 173 57.333" xml:space="preserve">
<g>
	<polygon fill="#FFFFFF" points="34.862,22.667 34.602,22.667 34.472,23.491 33.128,33.552 36.337,33.552 34.993,23.491 	"/>
	<path fill="#FFFFFF" d="M103.813,18.244c-0.78-0.521-1.691-0.477-2.082-0.477v8.5c0.391,0,1.302,0.043,2.082-0.477
		s1.388-1.561,1.388-3.773C105.201,19.805,104.594,18.764,103.813,18.244z"/>
	<path fill="#FFFFFF" d="M103.813,31.036c-0.78-0.563-1.691-0.477-2.082-0.477v9.801c0.391,0,1.302,0.087,2.082-0.477
		c0.78-0.563,1.388-1.821,1.388-4.423S104.594,31.6,103.813,31.036z"/>
	<path fill="#FFFFFF" d="M88.592,19.501c-0.477-1.518-1.388-1.691-2.992-1.691v22.506c1.604,0,2.515-0.173,2.992-1.734
		c0.217-0.737,0.391-1.865,0.434-3.383c0.043-1.518,0.043-3.556,0.043-6.158s0-4.64-0.043-6.158
		C88.982,21.409,88.809,20.282,88.592,19.501z"/>
	<path fill="#FFFFFF" d="M0,0v57.333h173V0H0z M21.072,45l-2.428-13.443h-1.258V45h-4.684V13.126h4.684
		c5.594,0,7.979,3.166,7.979,9.193c0,3.166-0.824,6.028-2.602,7.242L25.756,45H21.072z M37.854,45l-0.867-6.505h-4.51L31.61,45
		h-4.553l4.813-31.874h5.725L42.408,45H37.854z M49.26,45h-4.684V13.126h4.684V45z M58.193,23.664
		c0.694,1.214,1.604,2.472,2.515,3.816c1.084,1.604,2.168,3.252,2.992,4.857c0.824,1.604,1.388,3.252,1.388,4.987
		c0,2.125-0.347,4.12-1.344,5.594s-2.602,2.428-5.161,2.428c-2.992,0-4.684-1.127-5.637-2.862c-0.954-1.735-1.171-4.033-1.171-6.418
		l4.597-0.434c0,1.345,0.043,2.689,0.39,3.687c0.304,1.041,0.824,1.734,1.821,1.734c1.388,0,1.908-1.475,1.908-3.513
		c0-1.041-0.521-2.255-1.214-3.513c-0.39-0.607-0.78-1.257-1.214-1.908c-0.911-1.301-1.908-2.775-2.949-4.38
		c-1.041-1.604-1.821-3.252-2.298-4.944c-0.26-0.824-0.39-1.691-0.39-2.559c0-1.734,0.39-3.599,1.388-5.03
		c0.998-1.388,2.515-2.385,4.727-2.429c2.819-0.043,4.467,1.127,5.377,2.819c0.911,1.735,1.171,3.859,1.171,5.638l-4.597,0.434
		c0-1.041-0.043-2.212-0.347-3.123c-0.303-0.867-0.78-1.474-1.518-1.474c-1.214,0.043-1.604,1.301-1.604,3.166
		C57.022,21.322,57.5,22.45,58.193,23.664z M78.314,17.94h-6.028v8.37h4.337v5.117h-4.337v8.76h6.028V45H67.603V13.126h10.711V17.94
		z M92.538,41.704C91.281,44.133,88.939,45,84.603,45h-3.686V13.126h3.686c4.336,0,6.678,0.867,7.936,3.296
		c1.214,2.428,1.388,6.418,1.388,12.663S93.752,39.276,92.538,41.704z M108.54,42.138c-1.084,1.648-2.948,2.732-5.724,2.862h-5.769
		V13.126h4.12c2.775,0,4.943,0.521,6.375,1.865c1.431,1.344,2.168,3.426,2.168,6.591c0,1.518-0.13,2.646-0.607,3.686
		c-0.477,1.041-1.214,1.908-2.298,2.906c1.171,0.65,2.038,1.865,2.731,3.903c0.348,0.998,0.521,2.298,0.521,3.903
		C110.058,38.365,109.624,40.49,108.54,42.138z M120.423,31.427V45h-4.684V31.427l-4.77-18.3h4.597l2.342,10.191l0.13,0.303h0.087
		l0.13-0.303l2.342-10.191h4.597L120.423,31.427z M131.178,45h-4.554v-4.813h4.554V45z M146.485,38.452
		c-0.044,1.301-0.304,2.472-0.78,3.469c-0.391,0.868-0.998,1.691-1.865,2.342c-0.867,0.694-2.038,1.084-3.6,1.084
		c-1.561,0-2.775-0.39-3.643-1.084c-0.867-0.65-1.431-1.474-1.821-2.342c-0.477-0.997-0.737-2.168-0.78-3.469V13.126h4.684v25.325
		c0,0.911,0.217,1.518,0.65,1.995c0.217,0.217,0.521,0.347,0.91,0.347c0.824,0,1.215-0.521,1.388-1.171
		c0.131-0.303,0.174-0.694,0.174-1.171V13.126h4.684V38.452z M155.375,23.664c0.694,1.214,1.604,2.472,2.516,3.816
		c1.084,1.604,2.168,3.252,2.992,4.857s1.388,3.252,1.388,4.987c0,2.125-0.347,4.12-1.345,5.594
		c-0.997,1.475-2.602,2.428-5.16,2.428c-2.992,0-4.684-1.127-5.638-2.862c-0.954-1.735-1.171-4.033-1.171-6.418l4.597-0.434
		c0,1.345,0.044,2.689,0.391,3.687c0.304,1.041,0.824,1.734,1.821,1.734c1.388,0,1.908-1.475,1.908-3.513
		c0-1.041-0.521-2.255-1.214-3.513c-0.391-0.607-0.781-1.257-1.215-1.908c-0.91-1.301-1.908-2.775-2.948-4.38
		c-1.041-1.604-1.821-3.252-2.299-4.944c-0.26-0.824-0.391-1.691-0.391-2.559c0-1.734,0.391-3.599,1.388-5.03
		c0.998-1.388,2.516-2.385,4.728-2.429c2.818-0.043,4.467,1.127,5.377,2.819c0.911,1.735,1.171,3.859,1.171,5.638l-4.597,0.434
		c0-1.041-0.043-2.212-0.347-3.123c-0.304-0.867-0.781-1.474-1.518-1.474c-1.215,0.043-1.605,1.301-1.605,3.166
		C154.204,21.322,154.682,22.45,155.375,23.664z"/>
	<path fill="#FFFFFF" d="M17.386,17.767v9.454c0.65,0,1.518-0.087,2.212-0.694c0.694-0.607,1.257-1.778,1.257-4.033
		c0-2.255-0.563-3.469-1.257-4.076S18.037,17.767,17.386,17.767z"/>
</g>
</svg>
